# xmcd CD database file
#
# Track frame offsets:
#	150
#	8620
#	15659
#	25420
#	36222
#	57538
#	67039
#	78159
#	87514
#	105148
#	121652
#	131456
#	151628
#	161386
#	175844
#	186735
#	215295
#	225874
#	236029
#	245631
#	257135
#	271625
#	281347
#	290392
#
# Disc length: 4087 seconds
#
# Revision: 0
# Processed by: cddbd v1.4PL0 Copyright (c) Steve Scherf et al.
# Submitted via: CDex 1.51
#
DISCID=340ff518
DTITLE=FH-Furtwangen BigBand - Live! 2002
DYEAR=2002
DGENRE=Salsa
TTITLE0=wipeout
TTITLE1=jailhouse rock
TTITLE2=johnny be good
TTITLE3=over the rainbow
TTITLE4=brass maschine
TTITLE5=say say say
TTITLE6=lean on me
TTITLE7=cute (muted version)
TTITLE8=shake, rattle and roll
TTITLE9=vehicle
TTITLE10=mercy mercy mercy
TTITLE11=a night in tunisia
TTITLE12=joshua
TTITLE13=opus one
TTITLE14=tuxedo junction
TTITLE15=good times
TTITLE16=jumpin' at the woodside
TTITLE17=rockin robin
TTITLE18=cute (loud version)
TTITLE19=hang on sloopy
TTITLE20=spinning wheel
TTITLE21=it don't mean a thing
TTITLE22=puttin' on the ritz
TTITLE23=the muppet show
EXTD=YEAR: 2002
EXTT0=
EXTT1=
EXTT2=
EXTT3=
EXTT4=
EXTT5=
EXTT6=
EXTT7=
EXTT8=
EXTT9=
EXTT10=
EXTT11=
EXTT12=
EXTT13=
EXTT14=
EXTT15=
EXTT16=
EXTT17=
EXTT18=
EXTT19=
EXTT20=
EXTT21=
EXTT22=
EXTT23=
PLAYORDER=
